REM DIRINDEX 1\2\4,1\2\5,1\2\6,1\3\7,1\3\8
REM DIRNAME cjc128,folder01,folder02,folder03,folder04,folder05,folder06,folder07
TITLE ""
FILE "010_Lesson 08_Output_Stage.mp3" MP3
  TRACK 01 AUDIO
    TITLE "0:"
    INDEX 01 00:00:00
  TRACK 02 AUDIO
    TITLE "8:cjc128_2767"
    INDEX 01 00:00:13
  TRACK 03 AUDIO
    TITLE "0:"
    INDEX 01 00:02:61
  TRACK 04 AUDIO
    TITLE "8:cjc128_2768"
    INDEX 01 00:03:25
  TRACK 05 AUDIO
    TITLE "0:"
    INDEX 01 00:05:12
  TRACK 06 AUDIO
    TITLE "7:cjc128_2769"
    INDEX 01 00:05:69
  TRACK 07 AUDIO
    TITLE "0:"
    INDEX 01 00:08:38
  TRACK 08 AUDIO
    TITLE "8:cjc128_2770"
    INDEX 01 00:11:58
  TRACK 09 AUDIO
    TITLE "0:"
    INDEX 01 00:13:49
  TRACK 10 AUDIO
    TITLE "7:cjc128_2771"
    INDEX 01 00:14:31
  TRACK 11 AUDIO
    TITLE "0:"
    INDEX 01 00:18:05
  TRACK 12 AUDIO
    TITLE "8:cjc128_2772"
    INDEX 01 00:22:30
  TRACK 13 AUDIO
    TITLE "0:"
    INDEX 01 00:24:04
  TRACK 14 AUDIO
    TITLE "7:cjc128_2773"
    INDEX 01 00:24:67
  TRACK 15 AUDIO
    TITLE "0:"
    INDEX 01 00:27:16
  TRACK 16 AUDIO
    TITLE "8:cjc128_2774"
    INDEX 01 00:29:74
  TRACK 17 AUDIO
    TITLE "0:"
    INDEX 01 00:31:71
  TRACK 18 AUDIO
    TITLE "7:cjc128_2775"
    INDEX 01 00:32:56
  TRACK 19 AUDIO
    TITLE "0:"
    INDEX 01 00:35:37
  TRACK 20 AUDIO
    TITLE "8:cjc128_2776"
    INDEX 01 00:38:61
  TRACK 21 AUDIO
    TITLE "0:"
    INDEX 01 00:41:00
  TRACK 22 AUDIO
    TITLE "7:cjc128_2777"
    INDEX 01 00:41:57
  TRACK 23 AUDIO
    TITLE "0:"
    INDEX 01 00:44:32
  TRACK 24 AUDIO
    TITLE "8:cjc128_2778"
    INDEX 01 00:47:46
  TRACK 25 AUDIO
    TITLE "0:"
    INDEX 01 00:49:49
  TRACK 26 AUDIO
    TITLE "7:cjc128_2779"
    INDEX 01 00:50:37
  TRACK 27 AUDIO
    TITLE "0:"
    INDEX 01 00:53:29
  TRACK 28 AUDIO
    TITLE "8:cjc128_2780"
    INDEX 01 00:56:67
  TRACK 29 AUDIO
    TITLE "0:"
    INDEX 01 00:58:66
  TRACK 30 AUDIO
    TITLE "7:cjc128_2781"
    INDEX 01 00:59:51
  TRACK 31 AUDIO
    TITLE "0:"
    INDEX 01 01:01:52
  TRACK 32 AUDIO
    TITLE "8:cjc128_2782"
    INDEX 01 01:04:25
  TRACK 33 AUDIO
    TITLE "0:"
    INDEX 01 01:06:34
  TRACK 34 AUDIO
    TITLE "7:cjc128_2783"
    INDEX 01 01:07:14
  TRACK 35 AUDIO
    TITLE "0:"
    INDEX 01 01:09:50
  TRACK 36 AUDIO
    TITLE "8:cjc128_2784"
    INDEX 01 01:12:44
  TRACK 37 AUDIO
    TITLE "0:"
    INDEX 01 01:14:47
  TRACK 38 AUDIO
    TITLE "7:cjc128_2785"
    INDEX 01 01:15:29
  TRACK 39 AUDIO
    TITLE "0:"
    INDEX 01 01:17:73
  TRACK 40 AUDIO
    TITLE "8:cjc128_2786"
    INDEX 01 01:20:71
  TRACK 41 AUDIO
    TITLE "0:"
    INDEX 01 01:23:01
  TRACK 42 AUDIO
    TITLE "7:cjc128_2787"
    INDEX 01 01:23:60
  TRACK 43 AUDIO
    TITLE "0:"
    INDEX 01 01:25:57
  TRACK 44 AUDIO
    TITLE "8:cjc128_2788"
    INDEX 01 01:28:18
  TRACK 45 AUDIO
    TITLE "0:"
    INDEX 01 01:30:17
  TRACK 46 AUDIO
    TITLE "7:cjc128_2789"
    INDEX 01 01:30:73
  TRACK 47 AUDIO
    TITLE "0:"
    INDEX 01 01:34:08
  TRACK 48 AUDIO
    TITLE "8:cjc128_2790"
    INDEX 01 01:37:64
  TRACK 49 AUDIO
    TITLE "0:"
    INDEX 01 01:39:64
  TRACK 50 AUDIO
    TITLE "7:cjc128_2791"
    INDEX 01 01:40:38
  TRACK 51 AUDIO
    TITLE "0:"
    INDEX 01 01:43:74
  TRACK 52 AUDIO
    TITLE "8:cjc128_2792"
    INDEX 01 01:48:05
  TRACK 53 AUDIO
    TITLE "0:"
    INDEX 01 01:49:47
  TRACK 54 AUDIO
    TITLE "7:cjc128_2793"
    INDEX 01 01:50:37
  TRACK 55 AUDIO
    TITLE "0:"
    INDEX 01 01:53:10
  TRACK 56 AUDIO
    TITLE "8:cjc128_2794"
    INDEX 01 01:56:24
  TRACK 57 AUDIO
    TITLE "0:"
    INDEX 01 01:58:11
  TRACK 58 AUDIO
    TITLE "7:cjc128_2795"
    INDEX 01 01:58:72
  TRACK 59 AUDIO
    TITLE "0:"
    INDEX 01 02:03:04
  TRACK 60 AUDIO
    TITLE "8:cjc128_2796"
    INDEX 01 02:07:49
  TRACK 61 AUDIO
    TITLE "0:"
    INDEX 01 02:09:40
  TRACK 62 AUDIO
    TITLE "7:cjc128_2797"
    INDEX 01 02:10:24
  TRACK 63 AUDIO
    TITLE "0:"
    INDEX 01 02:12:62
  TRACK 64 AUDIO
    TITLE "8:cjc128_2798"
    INDEX 01 02:15:52
  TRACK 65 AUDIO
    TITLE "0:"
    INDEX 01 02:17:45
  TRACK 66 AUDIO
    TITLE "7:cjc128_2799"
    INDEX 01 02:18:29
  TRACK 67 AUDIO
    TITLE "0:"
    INDEX 01 02:21:47
  TRACK 68 AUDIO
    TITLE "8:cjc128_2800"
    INDEX 01 02:25:25
  TRACK 69 AUDIO
    TITLE "0:"
    INDEX 01 02:27:16
  TRACK 70 AUDIO
    TITLE "7:cjc128_2801"
    INDEX 01 02:28:02
  TRACK 71 AUDIO
    TITLE "0:"
    INDEX 01 02:29:66
  TRACK 72 AUDIO
    TITLE "8:cjc128_2802"
    INDEX 01 02:32:20
  TRACK 73 AUDIO
    TITLE "0:"
    INDEX 01 02:34:17
  TRACK 74 AUDIO
    TITLE "7:cjc128_2803"
    INDEX 01 02:34:69
  TRACK 75 AUDIO
    TITLE "0:"
    INDEX 01 02:36:70
  TRACK 76 AUDIO
    TITLE "8:cjc128_2804"
    INDEX 01 02:39:31
  TRACK 77 AUDIO
    TITLE "0:"
    INDEX 01 02:41:26
  TRACK 78 AUDIO
    TITLE "7:cjc128_2805"
    INDEX 01 02:42:10
  TRACK 79 AUDIO
    TITLE "0:"
    INDEX 01 02:44:05
  TRACK 80 AUDIO
    TITLE "8:cjc128_2806"
    INDEX 01 02:46:53
  TRACK 81 AUDIO
    TITLE "0:"
    INDEX 01 02:48:46
  TRACK 82 AUDIO
    TITLE "7:cjc128_2807"
    INDEX 01 02:49:30
  TRACK 83 AUDIO
    TITLE "0:"
    INDEX 01 02:51:44
  TRACK 84 AUDIO
    TITLE "8:cjc128_2808"
    INDEX 01 02:54:31
  TRACK 85 AUDIO
    TITLE "0:"
    INDEX 01 02:56:16
  TRACK 86 AUDIO
    TITLE "7:cjc128_2809"
    INDEX 01 02:57:00
  TRACK 87 AUDIO
    TITLE "0:"
    INDEX 01 02:59:50
  TRACK 88 AUDIO
    TITLE "8:cjc128_2810"
    INDEX 01 03:02:64
  TRACK 89 AUDIO
    TITLE "0:"
    INDEX 01 03:04:55
  TRACK 90 AUDIO
    TITLE "7:cjc128_2811"
    INDEX 01 03:05:37
  TRACK 91 AUDIO
    TITLE "0:"
    INDEX 01 03:08:49
